<svg width="46" height="46" viewBox="0 0 46 46" fill="none" xmlns="http://www.w3.org/2000/svg">
<circle cx="23" cy="23" r="23" fill="url(#paint0_linear_22_173)"/>
<path fill-rule="evenodd" clip-rule="evenodd" d="M16.792 15H12V17H15.218L17.988 29.678H18V30H31V29.752L33.193 20.091L33.531 19H17.655L17.085 16.389L16.792 15ZM30.987 21H18.092L19.621 28H29.398L30.987 21Z" fill="white"/>
<path d="M21 35C21.5304 35 22.0391 34.7893 22.4142 34.4142C22.7893 34.0391 23 33.5304 23 33C23 32.4696 22.7893 31.9609 22.4142 31.5858C22.0391 31.2107 21.5304 31 21 31C20.4696 31 19.9609 31.2107 19.5858 31.5858C19.2107 31.9609 19 32.4696 19 33C19 33.5304 19.2107 34.0391 19.5858 34.4142C19.9609 34.7893 20.4696 35 21 35Z" fill="white"/>
<path d="M30 33C30 33.5304 29.7893 34.0391 29.4142 34.4142C29.0391 34.7893 28.5304 35 28 35C27.4696 35 26.9609 34.7893 26.5858 34.4142C26.2107 34.0391 26 33.5304 26 33C26 32.4696 26.2107 31.9609 26.5858 31.5858C26.9609 31.2107 27.4696 31 28 31C28.5304 31 29.0391 31.2107 29.4142 31.5858C29.7893 31.9609 30 32.4696 30 33Z" fill="white"/>
<defs>
<linearGradient id="paint0_linear_22_173" x1="0" y1="0" x2="55.5269" y2="22.9473" gradientUnits="userSpaceOnUse">
<stop stop-color="#0C7264"/>
<stop offset="1" stop-color="#188274"/>
</linearGradient>
</defs>
</svg>
