<svg width="46" height="46" viewBox="0 0 46 46" fill="none" xmlns="http://www.w3.org/2000/svg">
<circle cx="23" cy="23" r="23" fill="url(#paint0_linear_207_2)"/>
<path d="M12.1667 16.245C12.1667 15.672 12.6498 15.2085 13.2446 15.2085H21.9221C22.208 15.2085 22.4821 15.3177 22.6843 15.5121C22.8864 15.7064 23 15.9701 23 16.245C23 16.5198 22.8864 16.7835 22.6843 16.9778C22.4821 17.1722 22.208 17.2814 21.9221 17.2814H13.2446C12.9587 17.2814 12.6845 17.1722 12.4824 16.9778C12.2802 16.7835 12.1667 16.5198 12.1667 16.245Z" fill="white"/>
<path d="M12.1667 23.3177C12.1667 22.7448 12.6498 22.2812 13.2446 22.2812H32.7554C33.0413 22.2813 33.3155 22.3904 33.5176 22.5848C33.7198 22.7792 33.8333 23.0428 33.8333 23.3177C33.8333 23.5926 33.7198 23.8562 33.5176 24.0506C33.3155 24.245 33.0413 24.3542 32.7554 24.3542H13.2446C12.9587 24.3542 12.6845 24.245 12.4824 24.0506C12.2802 23.8562 12.1667 23.5926 12.1667 23.3177Z" fill="white"/>
<path d="M13.2446 29.354C12.9587 29.354 12.6845 29.4632 12.4824 29.6576C12.2802 29.8519 12.1667 30.1156 12.1667 30.3905C12.1667 30.6653 12.2802 30.929 12.4824 31.1233C12.6845 31.3177 12.9587 31.4269 13.2446 31.4269H26.2554C26.5413 31.4269 26.8155 31.3177 27.0176 31.1233C27.2198 30.929 27.3333 30.6653 27.3333 30.3905C27.3333 30.1156 27.2198 29.8519 27.0176 29.6576C26.8155 29.4632 26.5413 29.354 26.2554 29.354H13.2446Z" fill="white"/>
<defs>
<linearGradient id="paint0_linear_207_2" x1="0" y1="0" x2="55.5269" y2="22.9473" gradientUnits="userSpaceOnUse">
<stop stop-color="#0C7264"/>
<stop offset="1" stop-color="#188274"/>
</linearGradient>
</defs>
</svg>
